<?xml version="1.0" encoding="UTF-8" standalone="no"?>
<!-- Generator: Adobe Illustrator 19.0.0, SVG Export Plug-In . SVG Version: 6.00 Build 0)  -->

<svg
   version="1.1"
   id="Capa_1"
   x="0px"
   y="0px"
   viewBox="0 0 666.66669 756.05511"
   xml:space="preserve"
   inkscape:version="1.1.1 (3bf5ae0d25, 2021-09-20)"
   sodipodi:docname="ssl.svg"
   width="666.66669"
   height="756.05511"
   xmlns:inkscape="http://www.inkscape.org/namespaces/inkscape"
   xmlns:sodipodi="http://sodipodi.sourceforge.net/DTD/sodipodi-0.dtd"
   xmlns="http://www.w3.org/2000/svg"
   xmlns:svg="http://www.w3.org/2000/svg"
   xmlns:rdf="http://www.w3.org/1999/02/22-rdf-syntax-ns#"
   xmlns:cc="http://creativecommons.org/ns#"
   xmlns:dc="http://purl.org/dc/elements/1.1/"><metadata
     id="metadata43"><rdf:RDF><cc:Work
         rdf:about=""><dc:format>image/svg+xml</dc:format><dc:type
           rdf:resource="http://purl.org/dc/dcmitype/StillImage" /></cc:Work></rdf:RDF></metadata><defs
     id="defs41" /><sodipodi:namedview
     pagecolor="#ffffff"
     bordercolor="#666666"
     borderopacity="1"
     objecttolerance="10"
     gridtolerance="10"
     guidetolerance="10"
     inkscape:pageopacity="0"
     inkscape:pageshadow="2"
     inkscape:window-width="2082"
     inkscape:window-height="1003"
     id="namedview39"
     showgrid="false"
     inkscape:zoom="0.6518577"
     inkscape:cx="88.976474"
     inkscape:cy="261.56015"
     inkscape:window-x="130"
     inkscape:window-y="130"
     inkscape:window-maximized="0"
     inkscape:current-layer="Capa_1"
     inkscape:pagecheckerboard="0" /><g
     id="g9"
     style="fill:#003964;fill-opacity:1"
     transform="translate(383.19083,-87.47065)" /><g
     id="g11"
     style="fill:#003964;fill-opacity:1"
     transform="translate(383.19083,-87.47065)" /><g
     id="g13"
     style="fill:#003964;fill-opacity:1"
     transform="translate(383.19083,-87.47065)" /><g
     id="g15"
     style="fill:#003964;fill-opacity:1"
     transform="translate(383.19083,-87.47065)" /><g
     id="g17"
     style="fill:#003964;fill-opacity:1"
     transform="translate(383.19083,-87.47065)" /><g
     id="g19"
     style="fill:#003964;fill-opacity:1"
     transform="translate(383.19083,-87.47065)" /><g
     id="g21"
     style="fill:#003964;fill-opacity:1"
     transform="translate(383.19083,-87.47065)" /><g
     id="g23"
     style="fill:#003964;fill-opacity:1"
     transform="translate(383.19083,-87.47065)" /><g
     id="g25"
     style="fill:#003964;fill-opacity:1"
     transform="translate(383.19083,-87.47065)" /><g
     id="g27"
     style="fill:#003964;fill-opacity:1"
     transform="translate(383.19083,-87.47065)" /><g
     id="g29"
     style="fill:#003964;fill-opacity:1"
     transform="translate(383.19083,-87.47065)" /><g
     id="g31"
     style="fill:#003964;fill-opacity:1"
     transform="translate(383.19083,-87.47065)" /><g
     id="g33"
     style="fill:#003964;fill-opacity:1"
     transform="translate(383.19083,-87.47065)" /><g
     id="g35"
     style="fill:#003964;fill-opacity:1"
     transform="translate(383.19083,-87.47065)" /><g
     id="g37"
     style="fill:#003964;fill-opacity:1"
     transform="translate(383.19083,-87.47065)" /><path
     fill-rule="evenodd"
     clip-rule="evenodd"
     d="M 108.33333,320.80787 V 245.94565 C 108.33333,110.1137 209.06933,0 333.33333,0 457.59666,0 558.33332,110.1137 558.33332,245.94565 v 74.86222 c 37.16,3.035 61.35667,10.69043 79.04334,30.0272 29.29,32.01666 29.29,83.54503 29.29,186.60169 0,103.0567 0,154.58504 -29.29,186.6017 -29.29,32.01667 -76.43,32.01667 -170.71,32.01667 H 199.99999 c -94.281,0 -141.42133,0 -170.71066,-32.01667 C 0,692.0218 0,640.49346 0,537.43676 0,434.3801 0,382.85173 29.28933,350.83507 46.977,331.4983 71.175,323.843 108.33333,320.80787 Z m 50,-74.86222 c 0,-105.64696 78.35033,-191.29106 175,-191.29106 96.64999,0 174.99999,85.6441 174.99999,191.29106 v 73.00395 c -12.76666,-0.13 -26.61666,-0.13 -41.66666,-0.13 H 199.99999 c -15.05033,0 -28.89966,0 -41.66666,0.13 z"
     fill="#1c274c"
     id="path4311"
     style="fill:#003964;fill-opacity:1;stroke-width:34.8503" /><g
     id="g2442"
     transform="translate(-4.8219757,-5.3135419)"
     style="fill:#ffffff"><path
       d="m 159.79547,443.17887 26.25,-2.552 q 2.3698,13.21613 9.57031,19.41406 7.29167,6.1979 19.59636,6.1979 13.03385,0 19.59635,-5.46873 6.65365,-5.5599 6.65365,-12.94273 0,-4.73957 -2.82554,-8.02084 -2.73436,-3.3724 -9.66146,-5.83333 -4.73958,-1.64067 -21.60156,-5.83333 -21.69271,-5.3776 -30.44271,-13.21614 -12.30468,-11.02863 -12.30468,-26.88803 0,-10.20833 5.74218,-19.04947 5.83334,-8.9323 16.67969,-13.58073 10.9375,-4.64843 26.34115,-4.64843 25.15625,0 37.82552,11.02863 12.76041,11.02867 13.39843,29.4401 l -26.97916,1.185 q -1.73176,-10.29963 -7.47395,-14.76577 -5.65104,-4.5573 -17.04427,-4.5573 -11.75781,0 -18.41146,4.83074 -4.28385,3.099 -4.28385,8.29426 0,4.73957 4.01042,8.11197 5.10416,4.28387 24.79166,8.9323 19.6875,4.64843 29.07552,9.66147 9.47917,4.92186 14.76563,13.58073 5.37759,8.5677 5.37759,21.23697 0,11.48436 -6.3802,21.5104 -6.3802,10.02606 -18.04687,14.94793 -11.66667,4.83073 -29.07552,4.83073 -25.33854,0 -38.91927,-11.66667 -13.58073,-11.75783 -16.22396,-34.17969 z"
       style="font-weight:bold;font-size:5.6px;line-height:1.25;font-family:Arial;-inkscape-font-specification:'Arial Bold';text-align:center;text-anchor:middle;fill:#ffffff;fill-opacity:1;stroke-width:1"
       id="path14000" /><path
       d="m 284.30069,443.17887 26.25,-2.552 q 2.36967,13.21613 9.5703,19.41406 7.29167,6.1979 19.59637,6.1979 13.03383,0 19.59633,-5.46873 6.65367,-5.5599 6.65367,-12.94273 0,-4.73957 -2.82567,-8.02084 -2.73433,-3.3724 -9.66146,-5.83333 -4.73957,-1.64067 -21.60157,-5.83333 -21.6927,-5.3776 -30.4427,-13.21614 -12.30467,-11.02863 -12.30467,-26.88803 0,-10.20833 5.74217,-19.04947 5.83333,-8.9323 16.6797,-13.58073 10.9375,-4.64843 26.34113,-4.64843 25.15627,0 37.82554,11.02863 12.7604,11.02867 13.39843,29.4401 l -26.97917,1.185 q -1.73166,-10.29947 -7.47396,-14.7656 -5.65104,-4.5573 -17.04427,-4.5573 -11.7578,0 -18.41147,4.83073 -4.28383,3.099 -4.28383,8.29427 0,4.73957 4.0104,8.11197 5.10417,4.28386 24.79167,8.9323 19.6875,4.64843 29.07553,9.66146 9.47917,4.92187 14.7656,13.58074 5.37763,8.5677 5.37763,21.23696 0,11.48437 -6.38023,21.5104 -6.3802,10.02607 -18.04687,14.94793 -11.66666,4.83074 -29.07553,4.83074 -25.33853,0 -38.91927,-11.66667 -13.5807,-11.75783 -16.22393,-34.1797 z"
       style="font-weight:bold;font-size:5.6px;line-height:1.25;font-family:Arial;-inkscape-font-specification:'Arial Bold';text-align:center;text-anchor:middle;fill:#ffffff;fill-opacity:1;stroke-width:1"
       id="path13997" /><path
       d="M 416.37099,486.65543 V 354.1294 h 26.97917 v 110.013 h 67.08333 v 22.51303 z"
       style="font-weight:bold;font-size:5.6px;line-height:1.25;font-family:Arial;-inkscape-font-specification:'Arial Bold';text-align:center;text-anchor:middle;fill:#ffffff;fill-opacity:1;stroke-width:1"
       id="path13994" /><path
       d="M 201.95042,722.1496 V 611.13396 H 162.30198 V 588.5298 h 106.18488 v 22.60416 H 228.92958 V 722.1496 Z"
       style="font-weight:bold;font-size:5.6px;line-height:1.25;font-family:Arial;-inkscape-font-specification:'Arial Bold';text-align:center;text-anchor:middle;fill:#ffffff;fill-opacity:1;stroke-width:1"
       id="path13991" /><path
       d="M 286.62489,722.1496 V 589.62356 h 26.97917 v 110.013 h 67.08333 v 22.51304 z"
       style="font-weight:bold;font-size:5.6px;line-height:1.25;font-family:Arial;-inkscape-font-specification:'Arial Bold';text-align:center;text-anchor:middle;fill:#ffffff;fill-opacity:1;stroke-width:1"
       id="path13988" /><path
       d="m 393.08323,678.67303 26.25,-2.552 q 2.36966,13.21613 9.57033,19.41403 7.29166,6.19794 19.59633,6.19794 13.03387,0 19.59637,-5.46877 6.65363,-5.55987 6.65363,-12.9427 0,-4.73957 -2.82567,-8.02083 -2.73433,-3.3724 -9.66146,-5.83334 -4.7396,-1.64066 -21.60157,-5.83333 -21.6927,-5.3776 -30.4427,-13.21613 -12.3047,-11.02867 -12.3047,-26.88804 0,-10.20833 5.7422,-19.04946 5.83333,-8.9323 16.67967,-13.58074 10.9375,-4.64843 26.34116,-4.64843 25.15624,0 37.8255,11.02863 12.76044,11.02867 13.39844,29.4401 l -26.97917,1.185 q -1.73166,-10.29946 -7.47393,-14.76563 -5.65107,-4.55727 -17.04427,-4.55727 -11.75783,0 -18.41147,4.83074 -4.28386,3.099 -4.28386,8.29426 0,4.73957 4.01043,8.11197 5.10417,4.28387 24.79167,8.9323 19.6875,4.64843 29.0755,9.66147 9.47916,4.92186 14.76563,13.5807 5.3776,8.56773 5.3776,21.237 0,11.48436 -6.3802,21.5104 -6.3802,10.02606 -18.04687,14.94793 -11.66666,4.83073 -29.07553,4.83073 -25.33853,0 -38.91927,-11.66666 -13.58073,-11.75784 -16.22396,-34.1797 z"
       style="font-weight:bold;font-size:5.6px;line-height:1.25;font-family:Arial;-inkscape-font-specification:'Arial Bold';text-align:center;text-anchor:middle;fill:#ffffff;fill-opacity:1;stroke-width:1"
       id="path13985" /></g></svg>
