<svg width="50" height="50" viewBox="0 0 50 50" fill="none" xmlns="http://www.w3.org/2000/svg">
<rect width="50" height="50" rx="8" fill="#374151"/>
<path d="M16 18C16 17.4477 16.4477 17 17 17H33C33.5523 17 34 17.4477 34 18C34 18.5523 33.5523 19 33 19H17C16.4477 19 16 18.5523 16 18Z" fill="#9CA3AF"/>
<path d="M16 25C16 24.4477 16.4477 24 17 24H33C33.5523 24 34 24.4477 34 25C34 25.5523 33.5523 26 33 26H17C16.4477 26 16 25.5523 16 25Z" fill="#9CA3AF"/>
<path d="M16 32C16 31.4477 16.4477 31 17 31H27C27.5523 31 28 31.4477 28 32C28 32.5523 27.5523 33 27 33H17C16.4477 33 16 32.5523 16 32Z" fill="#9CA3AF"/>
</svg>